<?xml version="1.0" encoding="UTF-8" standalone="no"?>
<svg
   width="1200"
   height="360"
   viewBox="0 0 1200 360"
   fill="none"
   version="1.1"
   id="svg5"
   sodipodi:docname="logo-main.svg"
   inkscape:version="1.4.2 (f4327f4, 2025-05-13)"
   xmlns:inkscape="http://www.inkscape.org/namespaces/inkscape"
   xmlns:sodipodi="http://sodipodi.sourceforge.net/DTD/sodipodi-0.dtd"
   xmlns="http://www.w3.org/2000/svg"
   xmlns:svg="http://www.w3.org/2000/svg">
  <sodipodi:namedview
     id="namedview5"
     pagecolor="#ffffff"
     bordercolor="#000000"
     borderopacity="0.25"
     inkscape:showpageshadow="2"
     inkscape:pageopacity="0.0"
     inkscape:pagecheckerboard="0"
     inkscape:deskcolor="#d1d1d1"
     inkscape:zoom="2.0491667"
     inkscape:cx="599.756"
     inkscape:cy="179.8292"
     inkscape:window-width="2560"
     inkscape:window-height="1511"
     inkscape:window-x="-9"
     inkscape:window-y="-9"
     inkscape:window-maximized="1"
     inkscape:current-layer="svg5" />
  <defs
     id="defs1">
    <style
       id="style1">
      .bg { fill: #311F31; }
      .cream { fill: #F3EBDD; }
      .leaf { fill: #9ED9B0; }
      .word {
        fill: #F3EBDD;
        font-family: &quot;Segoe UI&quot;, &quot;Trebuchet MS&quot;, Arial, sans-serif;
        font-weight: 500;
      }
    </style>
  </defs>
  <rect
     class="bg"
     width="1200"
     height="360"
     rx="28"
     id="rect1" />
  <!-- icon -->
  <g
     transform="matrix(0.83098442,0,0,0.83098442,282.42157,20.661968)"
     id="g5">
    <g
       id="g2">
      <path
         class="leaf"
         d="M 0,24 C 8,10 24,0 48,-2 47,18 36,32 10,40 7,35 3,29 0,24 Z"
         id="path1" />
      <path
         class="leaf"
         d="M 0,24 C -8,10 -24,0 -48,-2 c 1,20 12,34 38,42 3,-5 7,-11 10,-16 z"
         id="path2" />
      <rect
         class="leaf"
         x="-4"
         y="22"
         width="8"
         height="16"
         rx="4"
         id="rect2" />
    </g>
    <g
       transform="translate(0,48)"
       id="g4">
      <path
         class="cream"
         d="m -55.417542,-10 h 48.5588736 v 190 c 0,52 -31.0776786,84 -84.4924446,84 -41.760637,0 -73.809477,-24 -73.809477,-62 0,-30 20.39472,-50 46.61651,-50 26.221796,0 43.702989,18 43.702989,42 0,14 -6.798242,26 -19.423545,33 8.740593,3 17.48119,5 26.221787,5 21.365904,0 33.991212,-14 33.991212,-42 V -10 Z"
         id="path3"
         style="stroke-width:0.985483" />
      <path
         class="cream"
         d="m 6,-10 h 50 c 82,0 132,30 132,87 0,34 -17,57 -48,70 41,13 67,41 67,84 0,66 -56,103 -142,103 H 6 Z m 50,34 v 104 h 49 c 33,0 51,-17 51,-48 0,-36 -22,-56 -60,-56 z m 0,140 v 136 h 55 c 44,0 63,-23 63,-62 0,-49 -27,-74 -76,-74 z"
         id="path4" />
    </g>
  </g>
  <!-- wordmark -->
  <text
     class="word"
     x="700"
     y="220"
     font-size="88"
     text-anchor="middle"
     id="text5">joopsberry</text>
</svg>
